<mxfile host="app.diagrams.net" modified="2020-05-12T07:54:43.441Z" agent="5.0 (Windows NT 10.0; WOW64) AppleWebKit/537.36 (KHTML, like Gecko) Chrome/80.0.3987.149 Safari/537.36" etag="ssrf8AS-WXPib1JlNOvK" version="13.0.9" type="github">
  <diagram id="OL-irD95xAdoa4F7DFmY" name="Page-1">
    <mxGraphModel dx="2269" dy="713" grid="1" gridSize="10" guides="1" tooltips="1" connect="1" arrows="1" fold="1" page="1" pageScale="1" pageWidth="827" pageHeight="1169" math="0" shadow="0">
      <root>
        <mxCell id="0" />
        <mxCell id="1" parent="0" />
        <mxCell id="P0mErR6XbF75XVscWNr0-18" style="edgeStyle=orthogonalEdgeStyle;rounded=0;orthogonalLoop=1;jettySize=auto;html=1;entryX=0.5;entryY=1;entryDx=0;entryDy=0;labelBackgroundColor=none;fontSize=15;" parent="1" source="P0mErR6XbF75XVscWNr0-2" target="P0mErR6XbF75XVscWNr0-6" edge="1">
          <mxGeometry relative="1" as="geometry" />
        </mxCell>
        <mxCell id="P0mErR6XbF75XVscWNr0-2" value="" style="shape=cube;whiteSpace=wrap;html=1;boundedLbl=1;backgroundOutline=1;darkOpacity=0.05;darkOpacity2=0.1;" parent="1" vertex="1">
          <mxGeometry x="330" y="510" width="120" height="250" as="geometry" />
        </mxCell>
        <mxCell id="P0mErR6XbF75XVscWNr0-4" value="" style="shape=image;html=1;verticalAlign=top;verticalLabelPosition=bottom;labelBackgroundColor=#ffffff;imageAspect=0;aspect=fixed;image=https://cdn2.iconfinder.com/data/icons/font-awesome/1792/qrcode-128.png" parent="1" vertex="1">
          <mxGeometry x="361" y="550" width="58" height="58" as="geometry" />
        </mxCell>
        <mxCell id="P0mErR6XbF75XVscWNr0-5" value="21客系统" style="rounded=1;whiteSpace=wrap;html=1;fontSize=20;" parent="1" vertex="1">
          <mxGeometry x="40" y="190" width="210" height="100" as="geometry" />
        </mxCell>
        <mxCell id="P0mErR6XbF75XVscWNr0-6" value="简24系统" style="rounded=1;whiteSpace=wrap;html=1;fontSize=20;" parent="1" vertex="1">
          <mxGeometry x="590" y="190" width="210" height="100" as="geometry" />
        </mxCell>
        <mxCell id="P0mErR6XbF75XVscWNr0-8" value="" style="image;html=1;labelBackgroundColor=#ffffff;image=img/lib/clip_art/people/Suit_Man_128x128.png;fontSize=20;" parent="1" vertex="1">
          <mxGeometry x="30" y="630" width="80" height="80" as="geometry" />
        </mxCell>
        <mxCell id="P0mErR6XbF75XVscWNr0-10" value="&lt;br&gt;&lt;br&gt;&lt;span style=&quot;color: rgb(0 , 0 , 0) ; font-family: &amp;#34;helvetica&amp;#34; ; font-size: 20px ; font-style: normal ; font-weight: 400 ; letter-spacing: normal ; text-align: center ; text-indent: 0px ; text-transform: none ; word-spacing: 0px ; float: none ; display: inline&quot;&gt;1.先下取货单，给到柜子及取货码&lt;/span&gt;&lt;br&gt;" style="endArrow=classic;html=1;fontSize=20;exitX=0.5;exitY=1;exitDx=0;exitDy=0;labelBackgroundColor=none;entryX=0.5;entryY=0;entryDx=0;entryDy=0;" parent="1" source="P0mErR6XbF75XVscWNr0-5" target="P0mErR6XbF75XVscWNr0-8" edge="1">
          <mxGeometry x="-0.1714" y="-4" width="50" height="50" relative="1" as="geometry">
            <mxPoint x="310" y="430" as="sourcePoint" />
            <mxPoint x="120" y="640" as="targetPoint" />
            <mxPoint as="offset" />
          </mxGeometry>
        </mxCell>
        <mxCell id="P0mErR6XbF75XVscWNr0-11" value="" style="endArrow=classic;html=1;labelBackgroundColor=none;fontSize=20;" parent="1" source="P0mErR6XbF75XVscWNr0-8" edge="1">
          <mxGeometry width="50" height="50" relative="1" as="geometry">
            <mxPoint x="210" y="680" as="sourcePoint" />
            <mxPoint x="328" y="669" as="targetPoint" />
          </mxGeometry>
        </mxCell>
        <mxCell id="P0mErR6XbF75XVscWNr0-12" value="2.输入取货码，取货" style="text;html=1;align=center;verticalAlign=middle;resizable=0;points=[];autosize=1;fontSize=20;" parent="1" vertex="1">
          <mxGeometry x="115" y="690" width="190" height="30" as="geometry" />
        </mxCell>
        <mxCell id="P0mErR6XbF75XVscWNr0-13" value="" style="endArrow=classic;html=1;labelBackgroundColor=none;fontSize=20;exitX=1;exitY=0.5;exitDx=0;exitDy=0;entryX=0;entryY=0.5;entryDx=0;entryDy=0;" parent="1" source="P0mErR6XbF75XVscWNr0-5" target="P0mErR6XbF75XVscWNr0-6" edge="1">
          <mxGeometry width="50" height="50" relative="1" as="geometry">
            <mxPoint x="420" y="410" as="sourcePoint" />
            <mxPoint x="470" y="360" as="targetPoint" />
          </mxGeometry>
        </mxCell>
        <mxCell id="P0mErR6XbF75XVscWNr0-14" value="0.1.根据柜子直接获得取货码" style="text;html=1;align=center;verticalAlign=middle;resizable=0;points=[];autosize=1;fontSize=15;" parent="1" vertex="1">
          <mxGeometry x="293" y="215" width="210" height="20" as="geometry" />
        </mxCell>
        <mxCell id="P0mErR6XbF75XVscWNr0-16" value="0.2.调用取货员信息更新绑定接口，柜子编码，取货码" style="text;html=1;align=center;verticalAlign=middle;resizable=0;points=[];autosize=1;fontSize=14;" parent="1" vertex="1">
          <mxGeometry x="245" y="270" width="350" height="20" as="geometry" />
        </mxCell>
        <mxCell id="P0mErR6XbF75XVscWNr0-17" value="" style="endArrow=classic;html=1;labelBackgroundColor=none;fontSize=20;exitX=1;exitY=0.75;exitDx=0;exitDy=0;entryX=0;entryY=0.75;entryDx=0;entryDy=0;" parent="1" source="P0mErR6XbF75XVscWNr0-5" target="P0mErR6XbF75XVscWNr0-6" edge="1">
          <mxGeometry width="50" height="50" relative="1" as="geometry">
            <mxPoint x="310" y="310" as="sourcePoint" />
            <mxPoint x="360" y="260" as="targetPoint" />
          </mxGeometry>
        </mxCell>
        <mxCell id="P0mErR6XbF75XVscWNr0-19" value="3.取货关门下取货单" style="text;html=1;align=center;verticalAlign=middle;resizable=0;points=[];autosize=1;fontSize=15;" parent="1" vertex="1">
          <mxGeometry x="503" y="588" width="150" height="20" as="geometry" />
        </mxCell>
        <mxCell id="nfWY01UJ80crQiQMGP8v-3" value="&lt;font style=&quot;font-size: 20px&quot;&gt;用户开门的时候,输入取货码,这个是谁，有手机号,注册用户&lt;/font&gt;" style="text;html=1;strokeColor=none;fillColor=none;align=center;verticalAlign=middle;whiteSpace=wrap;rounded=0;" vertex="1" parent="1">
          <mxGeometry x="110" y="830" width="430" height="60" as="geometry" />
        </mxCell>
      </root>
    </mxGraphModel>
  </diagram>
</mxfile>
